<?xml version="1.0" encoding="utf-8"?>
<!-- Generator: Adobe Illustrator 16.0.0, SVG Export Plug-In . SVG Version: 6.00 Build 0)  -->
<!DOCTYPE svg PUBLIC "-//W3C//DTD SVG 1.1//EN" "http://www.w3.org/Graphics/SVG/1.1/DTD/svg11.dtd">
<svg version="1.1" id="Layer_1" xmlns="http://www.w3.org/2000/svg" xmlns:xlink="http://www.w3.org/1999/xlink" x="0px" y="0px"
	 width="250px" height="250px" viewBox="0 0 250 250" enable-background="new 0 0 250 250" xml:space="preserve">
<circle fill="#20252E" cx="125" cy="125" r="110.1"/>
<g>
	<path fill="#FFFFFF" d="M79.2,132.5v27h-9.1V90.6h25.4c7.5,0,13.4,1.9,17.7,5.8c4.3,3.8,6.4,8.9,6.4,15.3c0,6.7-2.1,11.8-6.3,15.4
		c-4.2,3.6-10.2,5.4-17.9,5.4H79.2z M79.2,125h16.3c4.9,0,8.6-1.1,11.2-3.4c2.6-2.3,3.9-5.6,3.9-9.9c0-4.1-1.3-7.4-3.9-9.9
		c-2.6-2.5-6.1-3.7-10.6-3.8H79.2V125z"/>
	<path fill="#FFFFFF" d="M152.2,117l16.5-26.4h10.7l-21.8,34.1l22.3,34.7h-10.8l-16.9-26.9l-17,26.9h-10.7l22.3-34.7L125,90.6h10.6
		L152.2,117z"/>
</g>
</svg>
